<svg width="512" height="512" viewBox="0 0 512 512" fill="none" xmlns="http://www.w3.org/2000/svg"><g clip-path="url(#clip0)"><path d="M499.98 372.756C498.193 370.895 459.026 330.631 405.308 317.858C462.199 259.361 469.175 174.986 469.447 171.385C469.615 169.168 468.806 166.989 467.235 165.417C465.663 163.847 463.485 163.035 461.267 163.205C457.786 163.467 378.757 170.004 320.649 221.887C323.738 204.64 325.506 186.855 325.506 171.692C325.506 123.314 307.853 79.954 293.042 52.098C277.043 22.006 261.187 3.43 260.52 2.655C259.072 0.969 256.959 0 254.737 0C252.515 0 250.401 0.969 248.952 2.656C248.285 3.432 232.43 22.008 216.431 52.1C201.621 79.956 183.967 123.316 183.967 171.694C183.967 186.893 185.747 204.728 188.856 222.026C130.734 170.016 51.569 163.469 48.085 163.205C45.87 163.033 43.688 163.846 42.117 165.417C40.546 166.989 39.737 169.168 39.905 171.385C40.178 174.996 47.194 259.862 104.551 318.377C51.915 331.689 13.757 370.942 12.017 372.756C9.18601 375.707 9.18401 380.366 12.017 383.318C14.318 385.715 69.164 442.059 138.355 442.059C139.656 442.059 140.966 442.038 142.284 441.996C130.28 471.703 130.705 500.452 130.733 501.82C130.817 505.91 134.113 509.207 138.203 509.29C140.64 509.342 197.62 510.091 234.066 474.99L232.696 504.01C232.597 506.093 233.356 508.126 234.796 509.634C236.235 511.142 238.23 511.997 240.316 511.997H276.646C278.732 511.997 280.726 511.143 282.166 509.634C283.606 508.125 284.364 506.093 284.265 504.01L282.898 475.048C319.349 510.092 376.265 509.34 378.701 509.289C382.791 509.206 386.087 505.909 386.17 501.819C386.198 500.457 386.622 471.744 374.639 442.053C443.367 441.488 497.691 385.704 499.981 383.317C502.813 380.368 502.813 375.707 499.98 372.756ZM373.582 426.805C370.228 426.805 366.73 426.641 363.187 426.318C360.402 426.057 357.706 427.35 356.152 429.673C354.599 431.995 354.439 434.981 355.737 437.456C366.857 458.669 369.841 481.98 370.634 493.767C354.53 492.694 316.922 487.529 292.345 462.952C288.045 458.651 284.103 453.696 280.625 448.226C278.769 445.308 275.186 444.002 271.883 445.046C268.586 446.091 266.403 449.222 266.567 452.678L268.647 496.746H248.31L250.396 452.575C250.56 449.119 248.375 445.985 245.076 444.942C241.776 443.9 238.188 445.208 236.335 448.131C232.838 453.647 228.875 458.632 224.556 462.951C200.054 487.454 162.372 492.658 146.255 493.755C147.042 481.886 150.054 458.339 161.453 436.902C162.796 434.378 162.614 431.314 160.981 428.966C159.35 426.619 156.541 425.382 153.708 425.76C148.512 426.455 143.346 426.806 138.353 426.806C87.602 426.806 43.672 391.629 28.591 378.032C41.974 365.935 78.079 336.823 121.654 330.506C124.608 330.077 127.04 327.965 127.879 325.101C128.718 322.237 127.81 319.147 125.554 317.192C122.417 314.473 119.418 311.687 116.64 308.908C72.966 265.235 59.815 202.978 56.286 179.59C79.677 183.121 141.932 196.271 185.605 239.945C189.303 243.643 192.953 247.66 196.452 251.883C198.749 254.658 202.672 255.444 205.863 253.776C209.053 252.106 210.642 248.433 209.674 244.965C203.228 221.884 199.223 193.808 199.223 171.695C199.223 101.176 239.46 40.488 254.737 19.993C270.017 40.494 310.251 101.181 310.251 171.695C310.251 193.747 306.275 221.731 299.875 244.73C298.911 248.195 300.498 251.864 303.685 253.532C306.869 255.203 310.79 254.417 313.09 251.651C316.531 247.513 320.115 243.574 323.746 239.944C367.419 196.27 429.676 183.119 453.065 179.589C449.534 202.98 436.384 265.235 392.71 308.907C390.031 311.587 387.147 314.274 384.138 316.896C381.872 318.869 380.977 321.99 381.851 324.866C382.725 327.741 385.206 329.835 388.186 330.215C432.607 335.865 469.759 365.744 483.395 378.038C468.293 391.643 424.349 426.805 373.582 426.805Z" fill="#6E9941"/><path d="M382.825 370.859H276.449L389.237 258.071C392.216 255.091 392.216 250.262 389.237 247.283C386.257 244.305 381.428 244.305 378.449 247.283L265.661 360.07V128.521C265.661 124.307 262.246 120.893 258.033 120.893C253.82 120.893 250.405 124.307 250.405 128.521V360.284L137.402 247.283C134.423 244.305 129.593 244.305 126.615 247.283C123.636 250.263 123.636 255.092 126.615 258.071L239.403 370.859H120.064C115.851 370.859 112.436 374.273 112.436 378.487C112.436 382.701 115.851 386.115 120.064 386.115H239.616L205.227 420.504C202.248 423.484 202.248 428.313 205.227 431.292C206.716 432.781 208.669 433.525 210.62 433.525C212.571 433.525 214.524 432.781 216.013 431.292L250.402 396.903V417.365C250.402 421.579 253.817 424.993 258.03 424.993C262.243 424.993 265.658 421.579 265.658 417.365V397.117L298.92 430.379C300.41 431.868 302.363 432.612 304.314 432.612C306.265 432.612 308.218 431.867 309.708 430.379C312.687 427.399 312.687 422.57 309.708 419.591L276.231 386.114H382.822C387.036 386.114 390.45 382.7 390.45 378.486C390.45 374.272 387.038 370.859 382.825 370.859Z" fill="#6E9941"/></g><defs><clipPath id="clip0"><rect width="511.998" height="511.998" fill="white"/></clipPath></defs></svg>