<?xml version="1.0" standalone="no"?>
<!DOCTYPE svg PUBLIC "-//W3C//DTD SVG 20010904//EN"
 "http://www.w3.org/TR/2001/REC-SVG-20010904/DTD/svg10.dtd">
<svg version="1.0" xmlns="http://www.w3.org/2000/svg"
 width="1801.000000pt" height="1801.000000pt" viewBox="0 0 1801.000000 1801.000000"
 preserveAspectRatio="xMidYMid meet">
<metadata>
Created by potrace 1.11, written by Peter Selinger 2001-2013
</metadata>
<g transform="translate(0.000000,1801.000000) scale(0.100000,-0.100000)"
fill="#000000" stroke="none">
<path d="M8925 16655 c-5 -2 -44 -14 -85 -26 -41 -13 -86 -30 -100 -38 -111
-67 -249 -226 -275 -315 -8 -28 -39 -121 -69 -206 -29 -85 -79 -236 -111 -335
-32 -99 -84 -257 -116 -351 -33 -93 -59 -177 -59 -185 0 -9 -27 -92 -60 -184
-33 -92 -60 -175 -60 -184 0 -8 -26 -92 -59 -186 -32 -93 -63 -188 -69 -210
-5 -22 -30 -101 -56 -175 -69 -202 -146 -451 -177 -575 -15 -60 -43 -173 -63
-251 -19 -77 -38 -160 -42 -185 -3 -24 -21 -127 -39 -229 -68 -377 -81 -514
-101 -1075 -8 -233 10 -669 37 -898 18 -146 35 -252 89 -552 42 -232 131 -546
234 -826 32 -89 183 -398 348 -715 37 -71 92 -178 123 -239 69 -135 106 -198
112 -191 3 3 -4 24 -15 48 -39 80 -72 160 -72 172 0 6 -7 25 -16 41 -9 17 -25
52 -36 79 -10 28 -29 73 -42 100 -12 28 -38 89 -56 136 -18 47 -38 94 -45 105
-7 11 -22 49 -35 85 -12 36 -38 98 -57 139 -58 126 -167 467 -183 576 -4 27
-23 127 -43 220 -83 399 -112 725 -112 1245 1 259 6 423 18 565 9 110 20 231
23 269 12 150 97 605 155 836 22 85 49 191 60 235 28 109 132 439 175 555 20
52 48 133 64 180 15 47 45 128 65 180 20 52 50 136 66 185 15 50 33 99 39 110
11 24 62 161 95 260 13 39 36 102 50 140 15 39 47 124 70 190 23 66 70 199
105 295 34 96 86 243 115 325 66 191 111 311 133 354 53 107 210 139 322 66
43 -27 91 -113 118 -210 11 -39 41 -133 67 -210 26 -77 73 -216 105 -310 31
-93 77 -231 103 -305 25 -74 53 -155 61 -180 90 -268 176 -522 235 -695 54
-158 131 -391 164 -495 67 -213 79 -255 87 -305 4 -27 24 -120 43 -205 94
-412 142 -1017 119 -1493 -20 -436 -55 -741 -118 -1052 -19 -93 -39 -197 -45
-230 -5 -33 -26 -118 -46 -190 -19 -71 -49 -179 -65 -240 -45 -169 -147 -469
-198 -580 -15 -33 -33 -78 -40 -100 -7 -22 -25 -65 -40 -95 -15 -30 -40 -84
-55 -120 -48 -113 -59 -138 -195 -440 -29 -63 -60 -135 -70 -160 -9 -25 -38
-89 -64 -142 -25 -54 -46 -102 -46 -107 0 -6 -15 -41 -34 -78 -18 -37 -46 -97
-61 -133 -26 -61 -43 -98 -113 -252 -16 -35 -39 -88 -52 -118 -12 -30 -40 -90
-61 -132 -22 -43 -39 -82 -39 -88 0 -6 -18 -48 -41 -93 -22 -45 -53 -113 -69
-152 -15 -38 -43 -99 -60 -134 -18 -35 -45 -94 -60 -130 -37 -88 -191 -425
-218 -478 -12 -23 -22 -47 -22 -52 0 -6 -27 -66 -59 -133 -32 -68 -62 -134
-66 -148 -5 -14 -27 -64 -51 -111 -24 -47 -49 -103 -57 -125 -8 -21 -38 -91
-68 -154 -29 -63 -63 -137 -75 -165 -12 -27 -34 -77 -49 -110 -15 -33 -47
-107 -72 -165 -25 -58 -49 -110 -54 -116 -5 -6 -20 -41 -34 -78 -14 -37 -39
-95 -56 -129 -18 -34 -42 -89 -54 -122 -13 -33 -37 -87 -53 -120 -16 -33 -40
-85 -52 -115 -22 -53 -30 -72 -101 -225 -18 -38 -40 -90 -49 -115 -9 -25 -38
-89 -64 -142 -25 -53 -46 -101 -46 -107 0 -5 -24 -60 -54 -123 -29 -62 -59
-131 -66 -153 -7 -22 -19 -49 -26 -60 -6 -11 -29 -60 -49 -110 -21 -49 -50
-117 -65 -150 -59 -132 -129 -290 -205 -470 -52 -122 -131 -304 -192 -445 -24
-58 -56 -132 -70 -165 -14 -33 -41 -92 -59 -132 -19 -40 -34 -77 -34 -83 0 -6
-16 -46 -36 -88 -20 -42 -56 -126 -80 -186 -25 -60 -60 -143 -79 -185 -73
-164 -115 -285 -91 -260 2 2 24 45 49 94 24 50 113 221 196 380 144 275 270
517 421 810 245 476 304 593 401 785 60 118 124 244 143 280 19 36 136 269
260 518 125 249 231 461 236 470 5 9 138 275 295 590 157 316 290 581 295 590
6 10 115 231 243 492 128 261 300 610 382 775 135 275 317 652 417 865 22 47
57 121 78 165 21 44 73 154 116 245 42 91 101 215 130 276 30 62 54 115 54
118 0 3 24 57 54 120 30 63 74 159 96 213 23 54 48 112 56 128 7 17 25 66 40
110 15 44 30 85 34 90 12 17 129 383 168 525 36 132 120 493 131 565 6 39 25
153 41 255 63 391 90 719 90 1105 0 362 -28 714 -80 1005 -11 63 -25 147 -30
185 -33 217 -126 561 -250 915 -33 96 -87 252 -119 345 -32 94 -71 206 -86
250 -16 44 -52 147 -82 228 -29 81 -57 164 -62 185 -5 20 -28 87 -51 147 -23
61 -48 133 -57 160 -38 121 -95 281 -118 332 -8 17 -15 38 -15 47 0 8 -11 46
-26 83 -14 37 -46 127 -71 198 -25 72 -52 144 -60 160 -19 38 -101 145 -128
166 -11 10 -33 29 -50 43 -49 43 -88 64 -171 93 -66 22 -100 27 -204 29 -69 2
-129 2 -135 -1z"/>
<path d="M15865 13767 c-38 -13 -136 -58 -360 -167 -55 -26 -152 -73 -215
-103 -63 -31 -167 -80 -230 -110 -167 -80 -342 -164 -445 -212 -475 -224
-1078 -519 -1135 -555 -8 -5 -73 -42 -145 -82 -71 -40 -141 -81 -155 -91 -14
-10 -92 -63 -175 -117 -82 -54 -163 -110 -180 -123 -16 -13 -83 -63 -149 -112
-278 -207 -400 -318 -851 -779 -111 -113 -299 -345 -435 -536 -29 -41 -58 -80
-64 -86 -6 -6 -44 -62 -85 -125 -41 -63 -93 -143 -117 -179 -97 -147 -232
-407 -750 -1436 -363 -723 -549 -1102 -560 -1145 -31 -119 -4 -258 70 -359 45
-62 147 -147 193 -160 21 -6 70 -15 108 -22 90 -14 191 5 302 58 170 80 433
206 528 252 55 27 179 86 275 132 810 384 1401 669 1410 681 3 3 46 27 95 53
50 26 126 70 170 98 232 145 321 202 363 234 26 19 128 95 227 168 99 74 201
153 227 177 26 24 60 55 76 69 366 318 754 737 984 1065 19 28 64 91 99 140
75 104 195 293 282 445 129 223 1168 2292 1192 2372 32 107 16 239 -43 354
-30 58 -122 141 -199 177 -60 28 -80 32 -168 34 -63 2 -115 -2 -140 -10z"/>
<path d="M1861 13675 c-55 -20 -118 -63 -129 -88 -2 -4 -12 -16 -23 -25 -10
-10 -31 -45 -46 -77 -24 -52 -28 -72 -28 -150 l0 -90 536 -1070 c531 -1058
613 -1219 703 -1365 26 -41 79 -127 118 -190 39 -63 74 -117 78 -120 4 -3 31
-41 61 -85 63 -95 205 -286 248 -335 17 -19 34 -39 38 -45 50 -62 230 -266
322 -364 242 -259 602 -573 874 -763 65 -46 148 -105 185 -131 178 -129 613
-367 1068 -584 139 -67 376 -179 479 -228 146 -69 429 -204 530 -254 55 -27
179 -86 275 -131 96 -46 229 -109 295 -141 191 -92 223 -102 318 -97 102 4
160 31 237 109 68 68 72 74 92 124 35 90 31 201 -12 285 -454 908 -1071 2135
-1078 2143 -6 7 -30 50 -55 97 -67 127 -285 476 -337 540 -11 14 -76 100 -145
193 -190 256 -310 392 -611 689 -281 277 -390 371 -654 564 -74 54 -137 101
-140 104 -3 4 -63 44 -135 90 -71 46 -160 102 -196 126 -36 24 -101 62 -145
85 -43 23 -90 50 -104 59 -29 20 -263 138 -455 229 -71 34 -175 84 -230 111
-55 27 -152 73 -215 103 -397 188 -710 337 -805 384 -99 48 -256 123 -535 256
-52 24 -113 50 -135 56 -67 19 -173 13 -244 -14z"/>
<path d="M3740 7785 c-231 -14 -345 -29 -565 -75 -77 -16 -167 -34 -200 -41
-107 -21 -293 -76 -635 -190 -96 -32 -337 -110 -535 -174 -198 -64 -439 -142
-535 -174 -96 -32 -213 -70 -260 -85 -70 -21 -96 -35 -142 -76 -80 -71 -108
-132 -108 -234 0 -69 4 -90 29 -141 43 -90 79 -119 223 -175 69 -26 147 -55
174 -63 27 -8 116 -40 197 -71 81 -31 154 -56 162 -56 9 0 23 -4 33 -10 25
-14 255 -99 310 -114 26 -8 106 -36 177 -63 72 -27 166 -62 210 -77 44 -15
175 -61 290 -102 306 -108 685 -203 935 -234 52 -6 147 -18 210 -26 158 -20
687 -30 865 -15 532 43 790 100 1480 326 105 34 298 97 430 139 132 43 303 99
380 125 77 26 228 76 335 111 227 73 252 85 302 137 117 121 112 335 -11 446
-51 46 -61 51 -188 94 -60 19 -112 39 -118 43 -5 4 -48 20 -95 35 -99 33 -150
51 -280 101 -52 20 -115 42 -140 49 -25 7 -88 30 -140 50 -52 20 -133 49 -180
65 -47 16 -128 45 -180 65 -52 20 -108 40 -125 44 -16 5 -61 21 -100 35 -126
48 -228 83 -365 126 -74 23 -156 48 -181 56 -25 8 -70 19 -100 24 -30 5 -103
20 -164 34 -222 51 -406 76 -665 91 -293 17 -430 17 -730 0z"/>
<path d="M13495 7785 c-264 -16 -473 -49 -845 -135 -100 -23 -487 -146 -535
-170 -18 -9 -228 -84 -465 -166 -52 -18 -138 -49 -190 -69 -52 -20 -133 -49
-180 -65 -47 -15 -128 -45 -180 -65 -52 -20 -108 -40 -125 -44 -16 -5 -61 -21
-100 -35 -38 -15 -122 -45 -184 -67 -125 -43 -162 -62 -203 -106 -36 -38 -77
-131 -85 -191 -13 -110 62 -255 156 -301 20 -10 124 -46 231 -81 107 -35 251
-82 320 -105 69 -23 233 -77 365 -120 132 -43 312 -101 400 -130 372 -124 480
-156 665 -204 303 -77 532 -114 875 -142 178 -15 707 -5 865 15 63 8 158 20
210 26 308 38 765 161 1168 316 63 24 118 44 124 44 5 0 76 25 156 56 81 31
161 59 177 63 17 5 69 23 115 41 47 18 146 54 220 80 635 225 648 230 703 288
97 105 109 281 27 394 -51 71 -107 106 -230 144 -63 20 -266 86 -450 146 -184
61 -411 135 -505 165 -93 30 -247 81 -342 114 -95 32 -178 59 -186 59 -7 0
-64 17 -127 38 -146 49 -234 72 -441 117 -261 55 -405 75 -669 90 -288 17
-436 17 -735 0z"/>
<path d="M9290 6493 c11 -39 23 -67 60 -148 18 -38 40 -92 50 -120 17 -47 62
-154 167 -395 25 -58 56 -132 68 -165 12 -33 45 -112 73 -176 29 -64 52 -122
52 -130 0 -8 6 -23 13 -34 12 -17 57 -122 129 -300 11 -27 32 -75 46 -105 14
-30 35 -82 48 -115 21 -57 40 -104 174 -415 32 -74 62 -146 66 -160 4 -14 31
-78 60 -143 30 -65 54 -124 54 -130 0 -7 7 -25 16 -42 8 -16 47 -106 86 -200
38 -93 76 -183 85 -200 8 -16 28 -64 43 -105 16 -41 50 -124 76 -185 26 -60
53 -123 60 -140 7 -16 29 -68 49 -115 20 -47 47 -112 60 -145 12 -33 37 -91
55 -130 18 -38 43 -97 55 -130 24 -62 73 -178 158 -375 27 -63 59 -142 72
-175 12 -33 45 -112 73 -176 29 -64 52 -121 52 -126 0 -6 14 -38 30 -71 17
-34 30 -64 30 -68 0 -22 60 -79 104 -100 152 -71 317 30 318 194 1 49 -7 70
-64 181 -82 160 -260 504 -356 686 -40 77 -100 194 -134 260 -34 66 -92 179
-129 250 -37 72 -94 182 -127 245 -32 63 -92 180 -134 260 -41 80 -116 226
-167 325 -51 99 -119 230 -151 290 -32 61 -93 178 -135 260 -43 83 -109 211
-148 285 -38 74 -105 205 -149 290 -75 146 -146 283 -360 694 -49 94 -116 225
-150 291 -34 66 -92 179 -129 250 -37 72 -85 165 -106 207 -38 78 -59 101 -43
51z"/>
<path d="M7255 5823 c-23 -6 -264 -103 -340 -138 -80 -36 -264 -115 -340 -145
-74 -30 -248 -105 -353 -152 -34 -15 -64 -28 -67 -28 -3 0 -29 -12 -58 -26
-28 -14 -72 -32 -97 -41 -96 -33 -362 -164 -530 -260 -139 -80 -462 -308 -550
-389 -19 -17 -65 -59 -101 -93 -36 -33 -77 -70 -91 -81 -22 -17 -181 -185
-317 -335 -95 -105 -329 -443 -402 -580 -23 -44 -59 -107 -79 -140 -20 -33
-53 -92 -73 -131 -20 -40 -52 -97 -71 -128 -20 -30 -36 -58 -36 -61 0 -6 -59
-114 -117 -215 -11 -19 -44 -80 -73 -135 -29 -55 -61 -111 -70 -125 -10 -14
-41 -70 -70 -125 -29 -55 -61 -112 -71 -127 -48 -68 -69 -131 -69 -211 0 -93
12 -121 83 -194 93 -96 194 -107 347 -39 47 21 113 49 148 62 35 13 98 40 140
60 42 20 104 47 137 59 33 13 107 44 165 70 58 25 134 58 170 72 36 14 90 38
121 53 31 15 73 33 95 40 21 7 80 32 131 56 50 23 111 49 135 58 114 39 569
287 618 336 3 3 32 23 65 44 125 82 319 232 407 316 298 282 434 436 611 690
48 69 91 130 95 135 20 25 154 258 317 555 65 118 133 240 150 270 18 30 50
89 71 130 21 41 52 98 70 125 17 28 48 83 68 123 20 39 52 96 70 125 46 72 86
169 93 226 21 176 -160 336 -332 294z"/>
<path d="M10606 5819 c-47 -11 -142 -80 -151 -109 -3 -11 -10 -20 -14 -20 -15
0 -36 -86 -36 -145 1 -68 23 -124 118 -288 32 -54 57 -101 57 -105 0 -4 21
-41 46 -82 25 -41 62 -106 81 -145 20 -38 53 -97 74 -131 22 -34 39 -64 39
-68 0 -3 52 -98 115 -211 63 -112 115 -207 115 -210 0 -2 17 -33 38 -67 21
-35 55 -93 75 -130 64 -117 245 -375 365 -522 66 -81 329 -349 462 -472 84
-78 269 -218 381 -290 41 -26 83 -55 94 -65 50 -44 471 -267 590 -312 22 -8
75 -31 117 -51 42 -20 105 -47 140 -60 68 -25 224 -92 326 -138 34 -15 64 -28
67 -28 3 0 29 -12 58 -26 28 -14 72 -32 97 -41 25 -8 83 -33 130 -55 47 -22
112 -50 145 -63 33 -13 98 -40 145 -61 146 -65 250 -56 341 29 71 66 94 117
94 207 -1 65 -5 83 -34 139 -18 36 -41 76 -51 90 -10 14 -43 73 -74 131 -31
58 -61 112 -66 120 -6 8 -44 78 -86 155 -41 77 -79 144 -83 150 -5 5 -34 60
-66 120 -31 61 -63 117 -70 125 -6 8 -37 62 -67 120 -30 58 -67 123 -81 144
-15 21 -27 42 -27 47 0 9 -129 232 -139 239 -3 3 -32 44 -64 92 -144 216 -241
332 -478 568 -213 212 -213 212 -334 307 -241 188 -465 331 -715 453 -194 96
-265 128 -295 136 -16 4 -34 10 -40 14 -5 5 -39 20 -75 35 -36 15 -87 37 -115
50 -79 35 -263 114 -340 145 -38 16 -164 70 -280 120 -396 173 -428 183 -529
159z"/>
<path d="M8980 5439 c-14 -6 -36 -20 -49 -32 -22 -21 -111 -186 -111 -207 0
-6 -24 -61 -54 -123 -30 -62 -79 -166 -109 -232 -31 -66 -87 -189 -126 -273
-39 -84 -71 -155 -71 -157 0 -2 -24 -55 -54 -117 -29 -62 -70 -151 -91 -198
-20 -47 -42 -94 -49 -105 -8 -11 -28 -56 -45 -100 -18 -44 -41 -96 -53 -115
-11 -19 -35 -71 -53 -115 -19 -44 -54 -122 -79 -172 -26 -51 -46 -97 -46 -102
0 -4 -21 -51 -47 -102 -75 -150 -65 -224 40 -300 l40 -29 994 0 c1081 0 1031
-3 1084 56 74 81 63 172 -46 396 -15 29 -37 80 -49 113 -13 33 -44 104 -70
157 -25 54 -46 102 -46 108 0 6 -11 32 -24 58 -13 26 -52 112 -86 192 -34 80
-75 172 -90 205 -15 33 -37 85 -50 115 -12 30 -40 92 -61 137 -22 45 -39 86
-39 92 0 5 -21 53 -46 106 -25 53 -58 126 -73 163 -72 172 -201 462 -224 502
-42 76 -137 111 -217 79z m131 -732 c33 -70 59 -132 59 -138 0 -5 14 -38 31
-72 17 -34 42 -89 56 -122 58 -138 197 -455 229 -522 19 -39 34 -76 34 -82 0
-6 23 -58 51 -117 28 -58 57 -123 64 -143 7 -20 29 -70 48 -113 20 -42 33 -79
30 -82 -4 -3 -314 -6 -691 -6 -648 0 -684 1 -677 18 4 9 11 29 15 43 4 15 31
73 58 130 28 57 63 133 77 169 15 36 35 79 45 95 10 17 35 71 55 120 21 50 41
95 45 100 5 6 25 48 45 95 20 47 61 135 91 197 30 62 54 115 54 118 0 4 24 57
53 118 30 62 78 166 107 231 30 66 56 113 58 105 3 -8 31 -71 63 -142z"/>
<path d="M7582 2373 c-46 -22 -60 -43 -125 -184 -92 -202 -158 -352 -173 -391
-8 -21 -34 -80 -59 -133 -73 -152 -73 -198 0 -271 l44 -44 78 0 c78 0 79 0
119 40 28 26 49 61 64 102 13 35 42 101 65 148 23 47 46 96 50 110 4 14 29 70
55 125 25 55 52 115 59 133 l13 32 1172 0 1171 0 70 -147 c38 -82 91 -191 116
-243 26 -52 59 -122 74 -155 31 -70 58 -102 102 -121 74 -32 160 -10 213 55
26 31 30 44 30 95 0 42 -7 74 -24 110 -13 28 -59 123 -101 211 -41 88 -92 196
-113 240 -92 199 -128 259 -168 282 l-39 23 -1330 0 c-1206 0 -1333 -2 -1363
-17z"/>
</g>
</svg>
