<svg width="512" height="512" viewBox="0 0 512 512" fill="none" xmlns="http://www.w3.org/2000/svg"><path d="M119.467 337.067C91.23 337.067 68.267 360.03 68.267 388.267C68.267 416.504 91.23 439.467 119.467 439.467C147.704 439.467 170.667 416.504 170.667 388.267C170.667 360.03 147.703 337.067 119.467 337.067ZM119.467 422.4C100.642 422.4 85.334 407.091 85.334 388.267C85.334 369.442 100.643 354.134 119.467 354.134C138.291 354.134 153.6 369.443 153.6 388.267C153.6 407.091 138.291 422.4 119.467 422.4Z" fill="#6E9941"/><path d="M409.6 337.067C381.363 337.067 358.4 360.03 358.4 388.267C358.4 416.504 381.363 439.467 409.6 439.467C437.837 439.467 460.8 416.504 460.8 388.267C460.8 360.03 437.837 337.067 409.6 337.067ZM409.6 422.4C390.775 422.4 375.467 407.091 375.467 388.267C375.467 369.442 390.776 354.134 409.6 354.134C428.425 354.134 443.733 369.443 443.733 388.267C443.733 407.091 428.425 422.4 409.6 422.4Z" fill="#6E9941"/><path d="M510.643 289.784L433.843 170.317C432.273 167.876 429.568 166.4 426.666 166.4H332.8C328.081 166.4 324.267 170.223 324.267 174.933V388.266C324.267 392.985 328.081 396.799 332.8 396.799H366.933V379.732H341.333V183.467H422.007L494.933 296.909V379.734H452.266V396.8H503.466C508.185 396.8 511.999 392.986 511.999 388.267V294.4C512 292.77 511.531 291.157 510.643 289.784Z" fill="#6E9941"/><path d="M375.467 277.333V217.6H443.734V200.533H366.934C362.215 200.533 358.401 204.356 358.401 209.066V285.866C358.401 290.585 362.215 294.399 366.934 294.399H494.934V277.332H375.467V277.333Z" fill="#6E9941"/><path d="M332.8 106.667H8.533C3.823 106.667 0 110.49 0 115.2V388.267C0 392.986 3.823 396.8 8.533 396.8H76.8V379.733H17.067V123.733H324.267V379.733H162.133V396.8H332.8C337.519 396.8 341.333 392.986 341.333 388.267V115.2C341.333 110.49 337.519 106.667 332.8 106.667Z" fill="#6E9941"/><path d="M59.733 345.6H8.53302V362.667H59.733V345.6Z" fill="#6E9941"/><path d="M324.267 345.6H179.2V362.667H324.267V345.6Z" fill="#6E9941"/><path d="M503.466 345.6H469.333V362.667H503.466V345.6Z" fill="#6E9941"/><path d="M332.8 140.8H34.133V157.867H332.8V140.8Z" fill="#6E9941"/><path d="M128 379.733H110.933V396.8H128V379.733Z" fill="#6E9941"/><path d="M418.134 379.733H401.067V396.8H418.134V379.733Z" fill="#6E9941"/><path d="M153.6 72.533H34.133V89.6H153.6V72.533Z" fill="#6E9941"/><path d="M17.067 72.533H0V89.6H17.067V72.533Z" fill="#6E9941"/></svg>