<svg width="512" height="512" viewBox="0 0 512 512" fill="none" xmlns="http://www.w3.org/2000/svg"><path d="M440 365.692H72C70.1435 365.692 68.363 366.43 67.0503 367.742C65.7375 369.055 65 370.836 65 372.692V397.568C65.0011 399.424 65.7389 401.204 67.0514 402.517C68.3639 403.829 70.1438 404.567 72 404.568H440C441.857 404.568 443.637 403.831 444.95 402.518C446.262 401.205 447 399.425 447 397.568V372.692C447.001 371.773 446.82 370.862 446.468 370.013C446.117 369.163 445.601 368.391 444.951 367.741C444.301 367.091 443.529 366.575 442.679 366.224C441.83 365.872 440.919 365.691 440 365.692V365.692ZM433 379.692V390.568H79V379.692H433Z" fill="#6E9941"/><path d="M440 433H72C70.1435 433 68.363 433.738 67.0503 435.05C65.7375 436.363 65 438.143 65 440C65 441.857 65.7375 443.637 67.0503 444.95C68.363 446.262 70.1435 447 72 447H440C441.857 447 443.637 446.262 444.95 444.95C446.262 443.637 447 441.857 447 440C447 438.143 446.262 436.363 444.95 435.05C443.637 433.738 441.857 433 440 433V433Z" fill="#6E9941"/><path d="M147.2 343.084H147.628C152.219 343.04 156.755 342.071 160.964 340.236C165.172 338.4 168.968 335.735 172.124 332.4L271.052 228.568L272.772 230.292C273.422 230.943 274.193 231.459 275.043 231.811C275.892 232.163 276.803 232.344 277.722 232.344C278.641 232.344 279.552 232.163 280.401 231.811C281.251 231.459 282.022 230.943 282.672 230.292L296.112 216.852C299.298 218.751 302.836 219.987 306.512 220.484C309.512 220.869 312.3 222.235 314.444 224.368L317.56 227.48C316.643 230.242 316.511 233.205 317.18 236.037C317.849 238.869 319.292 241.46 321.348 243.52L339.232 261.404C340.545 262.716 342.324 263.453 344.18 263.453C346.036 263.453 347.815 262.716 349.128 261.404L397.128 213.404C397.779 212.754 398.295 211.983 398.647 211.133C398.999 210.284 399.18 209.374 399.18 208.454C399.18 207.535 398.999 206.624 398.647 205.775C398.295 204.925 397.779 204.154 397.128 203.504L379.276 185.6C377.826 184.142 376.101 182.986 374.201 182.2C372.301 181.413 370.264 181.01 368.208 181.016C366.521 181.015 364.845 181.285 363.244 181.816L360.132 178.708C357.996 176.565 356.631 173.774 356.252 170.772C355.469 164.692 352.7 159.041 348.376 154.696L260.728 67.052C260.078 66.4015 259.307 65.8854 258.457 65.5332C257.608 65.1811 256.697 64.9999 255.778 64.9999C254.859 64.9999 253.948 65.1811 253.099 65.5332C252.249 65.8854 251.478 66.4015 250.828 67.052L235.548 82.328C234.504 83.3716 233.817 84.7186 233.585 86.1763C233.353 87.6341 233.588 89.1279 234.256 90.444L234.656 91.244C238.634 99.029 240.04 107.875 238.672 116.51C237.303 125.145 233.231 133.123 227.04 139.296C226.389 139.946 225.873 140.717 225.521 141.567C225.169 142.416 224.988 143.327 224.988 144.246C224.988 145.166 225.169 146.076 225.521 146.925C225.873 147.775 226.389 148.546 227.04 149.196L238.988 161.144L226.252 173.876C224.94 175.189 224.203 176.968 224.203 178.824C224.203 180.68 224.94 182.459 226.252 183.772L227.296 184.816L123.464 283.744C118.486 288.489 115.044 294.617 113.581 301.336C112.118 308.056 112.701 315.06 115.255 321.445C117.809 327.83 122.217 333.304 127.911 337.161C133.605 341.018 140.323 343.081 147.2 343.084V343.084ZM248.92 88.752L255.776 81.9L338.468 164.584C340.6 166.731 341.967 169.52 342.356 172.52C343.128 178.604 345.898 184.26 350.232 188.6L357.128 195.5C357.778 196.151 358.549 196.667 359.399 197.019C360.248 197.371 361.159 197.552 362.078 197.552C362.997 197.552 363.908 197.371 364.757 197.019C365.607 196.667 366.378 196.151 367.028 195.5C367.34 195.188 367.763 195.013 368.204 195.013C368.645 195.013 369.068 195.188 369.38 195.5L382.316 208.436L344.196 246.556L331.26 233.62C330.95 233.307 330.777 232.884 330.777 232.444C330.777 232.004 330.95 231.581 331.26 231.268C331.91 230.619 332.426 229.847 332.779 228.998C333.131 228.149 333.312 227.239 333.312 226.32C333.312 225.401 333.131 224.491 332.779 223.642C332.426 222.793 331.91 222.021 331.26 221.372L324.356 214.464C320.011 210.139 314.357 207.371 308.276 206.592C305.278 206.211 302.491 204.846 300.352 202.712L241.6 143.936C247.595 136.209 251.432 127.029 252.718 117.333C254.004 107.638 252.694 97.775 248.92 88.752V88.752ZM285.504 207.66L277.724 215.444L241.104 178.824L248.884 171.04L285.504 207.66ZM133.12 293.876L237.2 194.716L261.152 218.668L162 322.748C160.127 324.726 157.874 326.306 155.377 327.394C152.879 328.482 150.188 329.055 147.464 329.08C141.975 329.064 136.707 326.912 132.776 323.08C130.851 321.154 129.331 318.863 128.304 316.341C127.278 313.819 126.766 311.118 126.8 308.395C126.833 305.672 127.41 302.984 128.498 300.488C129.585 297.992 131.161 295.738 133.132 293.86L133.12 293.876Z" fill="#6E9941"/></svg>