<svg width="512" height="512" viewBox="0 0 512 512" fill="none" xmlns="http://www.w3.org/2000/svg"><path d="M476.158 231.363L462.899 178.328C466.524 177.558 469.244 174.342 469.244 170.489V161.938C469.244 143.372 454.139 128.268 435.574 128.268H375.182V110.63C375.182 101.494 367.75 94.062 358.614 94.062H50.772C41.636 94.062 34.204 101.494 34.204 110.63V256C34.204 260.427 37.793 264.017 42.221 264.017C46.648 264.017 50.238 260.428 50.238 256V110.63C50.238 110.335 50.477 110.096 50.772 110.096H358.613C358.908 110.096 359.147 110.335 359.147 110.63V256.002C359.147 260.429 362.736 264.019 367.164 264.019C371.591 264.019 375.181 260.43 375.181 256.002V246.914H469.75C469.758 246.914 469.764 246.916 469.771 246.916C469.779 246.916 469.786 246.915 469.793 246.915C481.43 246.923 491.311 254.561 494.705 265.086H469.777C465.35 265.086 461.76 268.675 461.76 273.103V290.205C461.76 304.056 473.028 315.324 486.879 315.324H495.965V350.597H475.003C468.117 330.714 449.216 316.392 427.021 316.392C404.826 316.392 385.924 330.714 379.039 350.597H375.179V290.204C375.179 285.777 371.59 282.187 367.162 282.187C362.735 282.187 359.145 285.776 359.145 290.204V350.595H192.817C185.931 330.712 167.03 316.39 144.835 316.39C122.64 316.39 103.738 330.712 96.853 350.595H50.772C50.477 350.595 50.238 350.356 50.238 350.061V332.424H84.977C89.404 332.424 92.994 328.835 92.994 324.407C92.994 319.979 89.405 316.39 84.977 316.39H8.017C3.59 316.39 0 319.979 0 324.407C0 328.835 3.589 332.424 8.017 332.424H34.205V350.061C34.205 359.197 41.637 366.629 50.773 366.629H94.077C94.075 366.807 94.063 366.984 94.063 367.163C94.063 395.159 116.84 417.935 144.835 417.935C172.83 417.935 195.607 395.159 195.607 367.163C195.607 366.983 195.595 366.807 195.593 366.629H376.263C376.261 366.807 376.249 366.984 376.249 367.163C376.249 395.159 399.026 417.935 427.021 417.935C455.016 417.935 477.793 395.159 477.793 367.163C477.793 366.983 477.781 366.807 477.779 366.629H503.982C508.409 366.629 511.999 363.04 511.999 358.612V273.101C512 251.989 496.423 234.448 476.158 231.363ZM375.182 144.301H435.574C445.299 144.301 453.211 152.213 453.211 161.938V162.472H375.182V144.301ZM375.182 230.881V178.505H446.417L459.511 230.881H375.182ZM144.835 401.904C125.68 401.904 110.096 386.321 110.096 367.165C110.096 348.009 125.68 332.426 144.835 332.426C163.99 332.426 179.574 348.009 179.574 367.165C179.574 386.321 163.99 401.904 144.835 401.904ZM427.023 401.904C407.868 401.904 392.284 386.321 392.284 367.165C392.284 348.009 407.868 332.426 427.023 332.426C446.178 332.426 461.762 348.009 461.762 367.165C461.762 386.321 446.178 401.904 427.023 401.904ZM495.967 299.29H486.881C481.871 299.29 477.795 295.214 477.795 290.204V281.118H495.966V299.29H495.967Z" fill="#6e9941"/><path d="M144.835 350.597C135.699 350.597 128.267 358.029 128.267 367.165C128.267 376.301 135.699 383.733 144.835 383.733C153.971 383.733 161.403 376.301 161.403 367.165C161.403 358.029 153.971 350.597 144.835 350.597Z" fill="#6e9941"/><path d="M427.023 350.597C417.887 350.597 410.455 358.029 410.455 367.165C410.455 376.301 417.887 383.733 427.023 383.733C436.159 383.733 443.591 376.301 443.591 367.165C443.591 358.029 436.159 350.597 427.023 350.597Z" fill="#6e9941"/><path d="M332.96 316.393H213.244C208.817 316.393 205.227 319.982 205.227 324.41C205.227 328.838 208.816 332.427 213.244 332.427H332.96C337.387 332.427 340.977 328.838 340.977 324.41C340.977 319.982 337.388 316.393 332.96 316.393Z" fill="#6e9941"/><path d="M127.733 282.188H25.119C20.692 282.188 17.102 285.777 17.102 290.205C17.102 294.633 20.691 298.222 25.119 298.222H127.733C132.16 298.222 135.75 294.633 135.75 290.205C135.75 285.777 132.16 282.188 127.733 282.188Z" fill="#6e9941"/><path d="M278.771 173.37C275.641 170.24 270.564 170.24 267.434 173.371L196.142 244.662L159.055 207.575C155.924 204.444 150.848 204.444 147.718 207.575C144.587 210.706 144.587 215.781 147.718 218.912L190.474 261.668C192.039 263.234 194.091 264.016 196.142 264.016C198.193 264.016 200.246 263.234 201.81 261.668L278.77 184.708C281.901 181.576 281.901 176.501 278.771 173.37Z" fill="#6e9941"/></svg>