<svg width="489" height="489" viewBox="0 0 489 489" fill="none" xmlns="http://www.w3.org/2000/svg"><g clip-path="url(#clip0)"><path d="M423.8 411.4H389.9C383.1 411.4 377.6 416.9 377.6 423.7C377.6 430.5 383.1 436 389.9 436H423.8C451.9 436 474.8 413.1 474.8 385V104.1C474.8 76 451.9 53.1 423.8 53.1H191.3L223.5 20.9C228.3 16.1 228.3 8.4 223.5 3.6C218.7 -1.2 211 -1.2 206.2 3.6L153.1 56.7C148.3 61.5 148.3 69.2 153.1 74L206.2 127.1C208.6 129.5 211.7 130.7 214.9 130.7C218.1 130.7 221.2 129.5 223.6 127.1C228.4 122.3 228.4 114.6 223.6 109.8L191.4 77.6H423.9C438.5 77.6 450.4 89.5 450.4 104.1V384.9C450.3 399.5 438.4 411.4 423.8 411.4Z" fill="#6e9941"/><path d="M265.4 485.4C267.8 487.8 270.9 489 274.1 489C277.3 489 280.4 487.8 282.8 485.4L335.9 432.3C340.7 427.5 340.7 419.8 335.9 415L282.8 361.9C278 357.1 270.3 357.1 265.5 361.9C260.7 366.7 260.7 374.4 265.5 379.2L297.7 411.4H65.1999C50.5999 411.4 38.7 399.5 38.7 384.9V104.1C38.7 89.5 50.5999 77.6 65.1999 77.6H99.1C105.9 77.6 111.4 72.1 111.4 65.3C111.4 58.5 105.9 53 99.1 53H65.1999C37.0999 53 14.2 75.9 14.2 104V384.8C14.2 412.9 37.0999 435.8 65.1999 435.8H297.7L265.5 468C260.7 472.9 260.7 480.7 265.4 485.4Z" fill="#6e9941"/></g><defs><clipPath id="clip0"><rect width="489" height="489" fill="white"/></clipPath></defs></svg>