<svg width="512" height="512" viewBox="0 0 512 512" fill="none" xmlns="http://www.w3.org/2000/svg"><g clip-path="url(#clip0)"><path d="M435.145 435.047L435.012 435.18C431.105 439.086 431.105 445.414 435.012 449.32C436.965 451.273 439.523 452.25 442.082 452.25C444.641 452.25 447.203 451.273 449.152 449.32L449.285 449.191C453.191 445.285 453.191 438.953 449.285 435.047C445.383 431.145 439.051 431.145 435.145 435.047Z" fill="#6E9941"/><path d="M449.156 146.68C421.047 118.57 386.496 99.2578 348.836 90.0938V68.0586C367.121 67.5039 381.836 52.4648 381.836 34.043C381.836 15.2695 366.562 0 347.793 0H247.875C229.105 0 213.832 15.2695 213.832 34.043C213.832 52.4648 228.543 67.5039 246.832 68.0586V90.1172C224.43 95.5898 203.027 104.684 183.34 117.18L128.996 48.0664C124.965 42.9375 118.914 40 112.395 40C112.379 40 112.359 40 112.344 40C105.801 40.0156 99.7461 42.9844 95.7266 48.1445L25.1602 138.758C25.1367 138.789 25.1133 138.82 25.0898 138.852C8.90625 158.781 0 183.883 0 209.566C0 261.961 36.1133 306.098 84.8164 318.512C95.1758 427.738 187.004 512 297.836 512C340.305 512 381.348 499.582 416.527 476.094C421.121 473.027 422.359 466.816 419.289 462.223C416.223 457.629 410.016 456.391 405.422 459.461C373.539 480.746 336.336 492 297.836 492C199.105 492 117.012 418.25 105.277 321.75C107.738 321.91 110.215 322 112.715 322C119.312 322 125.777 321.426 132.066 320.336C136.914 356.621 153.527 390.191 179.496 416.18C179.523 416.207 179.543 416.238 179.57 416.262C179.605 416.297 179.645 416.324 179.68 416.359C181.285 417.965 182.922 419.547 184.602 421.09C215.543 449.566 255.758 465.25 297.836 465.25C343.48 465.25 384.906 446.863 415.113 417.113C415.453 416.852 415.785 416.574 416.098 416.262C416.41 415.949 416.687 415.617 416.949 415.277C446.695 385.07 465.086 343.645 465.086 298C465.086 252.355 446.695 210.93 416.949 180.723C416.687 180.383 415.453 179.148 415.113 178.887C384.906 149.137 343.48 130.75 297.836 130.75C266.992 130.75 237.281 139.074 211.207 154.91C208.059 149.258 204.418 143.859 200.305 138.797C200.164 138.59 200.016 138.387 199.859 138.188L195.773 132.988C226.391 114.004 261.496 104 297.836 104C404.805 104 491.836 191.027 491.836 298C491.836 336.422 480.625 373.559 459.422 405.395C456.359 409.992 457.605 416.199 462.199 419.262C463.902 420.398 465.828 420.941 467.734 420.941C470.969 420.941 474.141 419.375 476.066 416.48C499.465 381.352 511.832 340.379 511.832 298C511.836 240.84 489.574 187.098 449.156 146.68V146.68ZM20 209.566C20 188.359 27.3867 167.641 40.8008 151.23C40.9258 151.078 41.0391 150.926 41.1523 150.773L111.508 60.4336C111.59 60.3242 111.863 59.9727 112.395 60C112.938 60 113.191 60.3203 113.277 60.4297L183.516 149.758C183.734 150.098 183.977 150.43 184.238 150.746C197.906 167.242 205.43 188.133 205.43 209.566C205.43 260.535 163.84 302 112.715 302C61.5938 302 20 260.535 20 209.566ZM332.41 288C328.984 276.18 319.656 266.848 307.836 263.426V151.098C340.922 153.328 371.051 166.531 394.594 187.098L379.668 202.023C375.762 205.93 375.762 212.262 379.668 216.168C381.621 218.121 384.18 219.098 386.738 219.098C389.297 219.098 391.855 218.121 393.809 216.168L408.734 201.242C429.305 224.785 442.508 254.91 444.738 288H332.41ZM297.836 282C306.656 282 313.836 289.18 313.836 298C313.836 306.82 306.656 314 297.836 314C289.012 314 281.836 306.82 281.836 298C281.836 289.18 289.012 282 297.836 282ZM287.836 151.102V263.426C272.836 267.77 261.836 281.621 261.836 298C261.836 317.852 277.984 334 297.836 334C314.215 334 328.066 323 332.41 308H444.738C442.508 341.09 429.305 371.215 408.734 394.758L393.809 379.832C389.902 375.93 383.57 375.93 379.664 379.832C375.762 383.738 375.762 390.07 379.664 393.977L394.594 408.902C371.047 429.469 340.922 442.676 307.832 444.902V423.73C307.832 418.207 303.355 413.73 297.832 413.73C292.309 413.73 287.832 418.207 287.832 423.73V444.898C255.098 442.641 224.922 429.379 201.246 408.727L216 393.977C219.906 390.07 219.906 383.738 216 379.832C212.094 375.93 205.762 375.93 201.859 379.832L187.086 394.605C167.957 372.801 155.09 345.355 151.57 315.113C194.637 299.289 225.43 257.949 225.43 209.566C225.43 197.188 223.348 184.965 219.398 173.383C240.059 160.336 263.418 152.734 287.836 151.102V151.102ZM233.836 34.043C233.836 26.3008 240.133 20 247.875 20H347.793C355.535 20 361.836 26.3008 361.836 34.043C361.836 41.7852 355.535 48.082 347.793 48.082H247.879C240.133 48.082 233.836 41.7852 233.836 34.043V34.043ZM266.836 86.2344V68.082H328.836V86.2227C318.656 84.7539 308.305 84 297.836 84C287.387 84 277.031 84.7578 266.836 86.2344Z" fill="#6E9941"/><path d="M163.5 199.566C157.977 199.566 153.5 204.047 153.5 209.566C153.5 231.98 135.203 250.215 112.715 250.215C107.191 250.215 102.715 254.691 102.715 260.215C102.715 265.734 107.191 270.215 112.715 270.215C146.23 270.215 173.5 243.008 173.5 209.566C173.5 204.047 169.023 199.566 163.5 199.566V199.566Z" fill="#6E9941"/></g><defs><clipPath id="clip0"><rect width="512" height="512" fill="white"/></clipPath></defs></svg>